<svg width="48" height="48" viewBox="0 0 48 48" fill="none" xmlns="http://www.w3.org/2000/svg">
<g clip-path="url(#clip0_600_61650)">
<path d="M36 26C36 32.62 30.62 38 24 38C17.38 38 12 32.62 12 26C12 19.38 17.38 14 24 14V22L34 12L24 2V10C15.16 10 8 17.16 8 26C8 34.84 15.16 42 24 42C32.84 42 40 34.84 40 26H36Z" fill="#FAFAFA"/>
<path d="M21.72 31.88V23.34H21.54L18 24.6V25.98L20.02 25.36V31.88H21.72Z" fill="#FAFAFA"/>
<path d="M24.5 26.88V28.36C24.5 32.16 27.12 32 27.38 32C27.66 32 30.26 32.18 30.26 28.36V26.88C30.26 23.08 27.64 23.24 27.38 23.24C27.1 23.24 24.5 23.06 24.5 26.88ZM28.58 26.64V28.58C28.58 30.12 28.16 30.64 27.4 30.64C26.64 30.64 26.2 30.12 26.2 28.58V26.64C26.2 25.14 26.64 24.62 27.38 24.62C28.14 24.6 28.58 25.14 28.58 26.64Z" fill="#FAFAFA"/>
</g>
<defs>
<clipPath id="clip0_600_61650">
<rect width="48" height="48" fill="white"/>
</clipPath>
</defs>
</svg>
