<svg width="48" height="48" viewBox="0 0 48 48" fill="none" xmlns="http://www.w3.org/2000/svg">
<g clip-path="url(#clip0_600_61658)">
<path d="M23.98 10V2L13.98 12L23.98 22V14C30.6 14 35.98 19.38 35.98 26C35.98 32.62 30.6 38 23.98 38C17.36 38 11.98 32.62 11.98 26H7.97998C7.97998 34.84 15.14 42 23.98 42C32.82 42 39.98 34.84 39.98 26C39.98 17.16 32.82 10 23.98 10Z" fill="#FAFAFA"/>
<path d="M21.7799 32H20.0799V25.48L18.0599 26.1V24.72L21.5999 23.46H21.7799V32Z" fill="#FAFAFA"/>
<path d="M30.3399 28.48C30.3399 29.12 30.2799 29.68 30.1399 30.12C29.9999 30.56 29.7999 30.96 29.5599 31.26C29.3199 31.56 28.9999 31.78 28.6599 31.92C28.3199 32.06 27.9199 32.12 27.4799 32.12C27.0399 32.12 26.6599 32.06 26.2999 31.92C25.9399 31.78 25.6399 31.56 25.3799 31.26C25.1199 30.96 24.9199 30.58 24.7799 30.12C24.6399 29.66 24.5599 29.12 24.5599 28.48V27C24.5599 26.36 24.6199 25.8 24.7599 25.36C24.8999 24.92 25.0999 24.52 25.3399 24.22C25.5799 23.92 25.8999 23.7 26.2399 23.56C26.5799 23.42 26.9799 23.36 27.4199 23.36C27.8599 23.36 28.2399 23.42 28.5999 23.56C28.9599 23.7 29.2599 23.92 29.5199 24.22C29.7799 24.52 29.9799 24.9 30.1199 25.36C30.2599 25.82 30.3399 26.36 30.3399 27V28.48ZM28.6399 26.76C28.6399 26.38 28.6199 26.06 28.5599 25.8C28.4999 25.54 28.4199 25.34 28.3199 25.18C28.2199 25.02 28.0999 24.9 27.9399 24.84C27.7799 24.78 27.6199 24.74 27.4399 24.74C27.2599 24.74 27.0799 24.78 26.9399 24.84C26.7999 24.9 26.6599 25.02 26.5599 25.18C26.4599 25.34 26.3799 25.54 26.3199 25.8C26.2599 26.06 26.2399 26.38 26.2399 26.76V28.7C26.2399 29.08 26.2599 29.4 26.3199 29.66C26.3799 29.92 26.4599 30.14 26.5599 30.3C26.6599 30.46 26.7799 30.58 26.9399 30.64C27.0999 30.7 27.2599 30.74 27.4399 30.74C27.6199 30.74 27.7999 30.7 27.9399 30.64C28.0799 30.58 28.2199 30.46 28.3199 30.3C28.4199 30.14 28.4999 29.92 28.5399 29.66C28.5799 29.4 28.6199 29.08 28.6199 28.7V26.76H28.6399Z" fill="#FAFAFA"/>
</g>
<defs>
<clipPath id="clip0_600_61658">
<rect width="48" height="48" fill="white"/>
</clipPath>
</defs>
</svg>
